<svg xmlns="http://www.w3.org/2000/svg" width="144" height="144" viewBox="0 0 144 144">
  <path d="M97.463204,84.0C95.879775,81.833333,92.120225,81.833333,90.536796,84.0C88.953367,86.166667,89.978878,89.5,91.562308,91.666667C94.105973,95.333333,98.894027,95.333333,101.437692,91.666667C103.021122,89.5,104.046633,86.166667,102.463204,84.0M50.536796,84.0C48.953367,81.833333,45.193816,81.833333,43.610388,84.0C42.026959,86.166667,43.052469,89.5,44.635898,91.666667C47.179563,95.333333,51.967617,95.333333,54.511282,91.666667C56.094711,89.5,57.120221,86.166667,55.536792,84.0M30.223304,84.0C28.639875,81.833333,24.880324,81.833333,23.296896,84.0C21.713467,86.166667,22.738978,89.5,24.322408,91.666667C26.866073,95.333333,31.654127,95.333333,34.197792,91.666667C35.781221,89.5,36.806732,86.166667,35.223303,84.0M59.776696,84.0C58.193267,81.833333,54.433716,81.833333,52.850288,84.0C51.266859,86.166667,52.29237,89.5,53.8758,91.666667C56.419465,95.333333,61.207519,95.333333,63.751184,91.666667C65.334614,89.5,66.360124,86.166667,64.776696,84.0" fill="none" stroke="#000" stroke-miterlimit="10"/>
</svg>
